<?xml version="1.0" encoding="UTF-8" standalone="no" ?>
<!DOCTYPE svg PUBLIC "-//W3C//DTD SVG 1.1//EN" "http://www.w3.org/Graphics/SVG/1.1/DTD/svg11.dtd">
<svg xmlns="http://www.w3.org/2000/svg" xmlns:xlink="http://www.w3.org/1999/xlink" version="1.1" width="1361.1567578125" height="675.6619999999999" xml:space="preserve">
<desc>Created with Fabric.js 1.6.0-rc.1</desc>
<defs></defs>
<g style="stroke: none; stroke-width: 1; stroke-dasharray: none; stroke-linecap: butt; stroke-linejoin: miter; stroke-miterlimit: 10; fill: none; fill-rule: nonzero; opacity: 1;" transform="translate(10 10) scale(4.62 2.33)" >
  <path d="M 170.883 261.92 c -3.953 -1.843 -7.86 -2.908 -11.688 -3.617 c -3.834 -0.672 -7.563 -0.955 -11.207 -0.869 c -7.285 0.138 -14.193 1.561 -20.943 3.644 c -6.746 2.091 -13.344 4.896 -19.883 8.111 c -8.236 3.925 -16.664 6.775 -25.48 8.748 c -8.806 1.935 -18.016 2.895 -27.491 2.285 c -9.436 -0.603 -19.237 -2.805 -28.307 -7.403 c -4.513 -2.305 -8.793 -5.215 -12.544 -8.663 a 53.3 53.3 0 0 1 -7.48 -8.496 l -0.268 -0.382 l -0.133 -0.189 l -0.066 -0.096 c 0.11 0.128 -0.294 -0.354 0.239 0.275 l -0.12 -0.146 c -0.37 -0.477 -0.566 -0.776 -0.8 -1.128 a 27.422 27.422 0 0 1 -1.165 -1.96 c -1.382 -2.583 -2.421 -5.285 -3 -8.192 c -0.572 -2.894 -0.743 -5.954 -0.283 -8.931 c 0.44 -2.972 1.402 -5.821 2.782 -8.273 a 26.881 26.881 0 0 1 4.867 -6.337 l 0.322 -0.374 c 0.192 -0.187 0.242 -0.215 0.35 -0.309 l 0.272 -0.215 l 0.518 -0.384 c 0.34 -0.244 0.678 -0.472 1.018 -0.689 c 0.677 -0.438 1.37 -0.83 2.082 -1.19 a 24.982 24.982 0 0 1 4.475 -1.781 a 20.23 20.23 0 0 1 4.893 -0.756 c 1.674 -0.037 3.37 0.185 4.95 0.66 c 3.195 0.964 5.729 2.957 7.456 5.174 a 21.703 21.703 0 0 1 2.198 3.473 c 0.579 1.212 1.077 2.421 1.443 3.674 l -0.01 0.007 c -1.008 -0.825 -1.991 -1.626 -3.035 -2.308 c -1.013 -0.703 -2.06 -1.313 -3.113 -1.773 c -2.102 -0.949 -4.182 -1.303 -5.948 -1.011 c -1.77 0.274 -3.307 1.07 -4.736 2.193 a 15.347 15.347 0 0 0 -2.026 1.887 c -0.313 0.35 -0.612 0.711 -0.894 1.068 c -0.14 0.18 -0.273 0.36 -0.393 0.536 l -0.164 0.255 l -0.062 0.113 c -0.001 0.018 -0.062 0.099 0.024 0.024 l 0.322 -0.373 c -1.455 2.87 -1.875 5.503 -1.472 7.667 c 0.212 1.097 0.54 2.139 1.08 3.166 c 0.543 1.013 1.212 2.059 2.006 2.922 c 0.192 0.213 0.394 0.413 0.565 0.561 c 0.072 0.057 0.189 0.158 0.148 0.07 l -0.057 -0.072 c 0.554 0.654 0.169 0.196 0.3 0.35 l 0.055 0.053 l 0.11 0.104 l 0.218 0.209 a 32.82 32.82 0 0 0 5.629 4.29 c 2.655 1.601 5.507 2.794 8.514 3.638 c 6.015 1.702 12.65 1.972 19.488 1.514 c 6.844 -0.477 13.908 -1.643 21.025 -3.176 c 7.1 -1.558 14.349 -3.446 21.167 -5.796 c 8.525 -3 17.633 -5.028 27.029 -5.348 c 9.354 -0.327 19.055 1.172 27.662 5.101 c 4.283 1.977 8.277 4.506 11.666 7.619 a 32.475 32.475 0 0 1 2.43 2.422 c 0.77 0.839 1.5 1.703 2.17 2.614 c 1.342 1.8 2.536 3.728 3.295 5.81 z" style="stroke: none; stroke-width: 1; stroke-dasharray: none; stroke-linecap: butt; stroke-linejoin: miter; stroke-miterlimit: 10; fill: #0a7c9b; fill-rule: nonzero; opacity: 1;" transform=" matrix(0.99999860915159 0 0 0.99999860915159 0 0) " stroke-linecap="round" />
  <path d="M 64.384 0 s -47 94.5 0 239.5 l 4 -16.5 s -39.5 -107 -4 -223 z" style="stroke: none; stroke-width: 1; stroke-dasharray: none; stroke-linecap: butt; stroke-linejoin: miter; stroke-miterlimit: 10; fill: #33506d; fill-rule: nonzero; opacity: 1;" transform=" matrix(0.99999860915159 0 0 0.99999860915159 0 0) " stroke-linecap="round" />
  <path d="M 95.797 74.341 L 60.09 80.339 a 384.195 384.195 0 0 0 -0.188 38.697 l 52.509 -8.821 c -5.794 -11.753 -11.445 -23.853 -16.615 -35.874 z" style="stroke: none; stroke-width: 1; stroke-dasharray: none; stroke-linecap: butt; stroke-linejoin: miter; stroke-miterlimit: 10; fill: #a2d1d9; fill-rule: nonzero; opacity: 1;" transform=" matrix(0.99999860915159 0 0 0.99999860915159 0 0) " stroke-linecap="round" />
  <path d="M 118.512 122.374 l -57.788 9.708 a 372.023 372.023 0 0 0 4.965 37.663 l 71.659 -12.037 c -5.996 -10.812 -12.426 -22.773 -18.836 -35.334 z" style="stroke: none; stroke-width: 1; stroke-dasharray: none; stroke-linecap: butt; stroke-linejoin: miter; stroke-miterlimit: 10; fill: #0a7c9b; fill-rule: nonzero; opacity: 1;" transform=" matrix(0.99999860915159 0 0 0.99999860915159 0 0) " stroke-linecap="round" />
  <path d="M 167.383 209 s -9.867 -15.671 -23.27 -39.247 l -75.84 12.74 A 360.34 360.34 0 0 0 78.383 219 l 89 -10 z" style="stroke: none; stroke-width: 1; stroke-dasharray: none; stroke-linecap: butt; stroke-linejoin: miter; stroke-miterlimit: 10; fill: #a2d1d9; fill-rule: nonzero; opacity: 1;" transform=" matrix(0.99999860915159 0 0 0.99999860915159 0 0) " stroke-linecap="round" />
  <path d="M 72.884 3.5 s -8.292 24.516 -11.822 63.495 l 29.604 -4.974 C 82.226 41.037 75.664 20.753 72.884 3.5 z" style="stroke: none; stroke-width: 1; stroke-dasharray: none; stroke-linecap: butt; stroke-linejoin: miter; stroke-miterlimit: 10; fill: #0a7c9b; fill-rule: nonzero; opacity: 1;" transform=" matrix(0.99999860915159 0 0 0.99999860915159 0 0) " stroke-linecap="round" />
</g>
  <g transform="translate(970.18 243.73) scale(5.03 6.15)">
   <text font-family="Comic Neue" font-size="40" font-weight="normal" style="stroke: none; stroke-width: 1; stroke-dasharray: none; stroke-linecap: butt; stroke-linejoin: miter; stroke-miterlimit: 10; fill: #585ecc; fill-rule: nonzero; opacity: 1;" ><tspan x="-76.24" y="8.98" style="stroke: none; stroke-width: 0; stroke-dasharray: none; stroke-linecap: butt; stroke-linejoin: miter; stroke-miterlimit: 4; fill: #585ecc; fill-rule: ; opacity: 1;">D</tspan><tspan x="-51.46" y="8.98" style="stroke: none; stroke-width: 0; stroke-dasharray: none; stroke-linecap: butt; stroke-linejoin: miter; stroke-miterlimit: 4; fill: #585ecc; fill-rule: ; opacity: 1;">G</tspan><tspan x="-21.42" y="8.98" style="stroke: none; stroke-width: 0; stroke-dasharray: none; stroke-linecap: butt; stroke-linejoin: miter; stroke-miterlimit: 4; fill: #585ecc; fill-rule: ; opacity: 1;">T</tspan><tspan x="-0.54" y="8.98" style="stroke: none; stroke-width: 0; stroke-dasharray: none; stroke-linecap: butt; stroke-linejoin: miter; stroke-miterlimit: 4; fill: #585ecc; fill-rule: ; opacity: 1;">o</tspan><tspan x="20.85" y="8.98" style="stroke: none; stroke-width: 0; stroke-dasharray: none; stroke-linecap: butt; stroke-linejoin: miter; stroke-miterlimit: 4; fill: #585ecc; fill-rule: ; opacity: 1;">u</tspan><tspan x="41.32" y="8.98" style="stroke: none; stroke-width: 0; stroke-dasharray: none; stroke-linecap: butt; stroke-linejoin: miter; stroke-miterlimit: 4; fill: #585ecc; fill-rule: ; opacity: 1;">r</tspan><tspan x="57.94" y="8.98" style="stroke: none; stroke-width: 0; stroke-dasharray: none; stroke-linecap: butt; stroke-linejoin: miter; stroke-miterlimit: 4; fill: #585ecc; fill-rule: ; opacity: 1;">s</tspan></text>
 </g>
</svg>